<svg width="16" height="16" viewBox="0 0 18 18" fill="none" xmlns="http://www.w3.org/2000/svg"><g id="State=Default"><path id="" fill-rule="evenodd" clip-rule="evenodd" d="M17.3944 6.12923L11.9636 5.34023L9.52971 0.441841C9.49441 0.322653 9.42515 0.216943 9.33079 0.138235C9.23643 0.0595259 9.12125 0.0113957 9 0C8.87852 0.0111454 8.76307 0.0591619 8.66845 0.137888C8.57384 0.216615 8.50438 0.322459 8.469 0.441841L6.03643 5.34286L0.606857 6.13186C0.463403 6.11792 0.320221 6.16114 0.207162 6.25252C0.094103 6.3439 0.0198918 6.47639 0 6.62236C0.0241559 6.82293 0.120397 7.00714 0.27 7.13916L4.20814 10.9527L3.27729 16.3442C3.26547 16.4155 3.25817 16.4875 3.25543 16.5598C3.25141 16.6968 3.29163 16.8313 3.36986 16.9425C3.40988 16.9953 3.46203 17.0373 3.52169 17.0646C3.58135 17.0919 3.64666 17.1037 3.71186 17.099C3.86461 17.092 4.01336 17.0468 4.14514 16.9675L9 14.423L13.8523 16.9649C13.9833 17.046 14.1325 17.0913 14.2856 17.0964C14.349 17.1001 14.4123 17.0878 14.47 17.0605C14.5276 17.0332 14.5778 16.9918 14.616 16.9399C14.6942 16.8287 14.7344 16.6942 14.7304 16.5572C14.7318 16.4852 14.7283 16.4131 14.7201 16.3416L13.7919 10.95L17.7184 7.13653C17.875 7.00987 17.9762 6.82504 18 6.62236C17.9813 6.47568 17.9078 6.3421 17.7949 6.24966C17.682 6.15723 17.5385 6.11312 17.3944 6.1266V6.12923Z" fill="#FFB700"></path></g></svg>
