<svg width="16" height="16" viewBox="0 0 19 18" fill="none" xmlns="http://www.w3.org/2000/svg"><g id="icon_Star_Full"><path id="" d="M17.8225 7.07405L17.9807 7.09703C17.963 7.13694 17.9365 7.1715 17.9039 7.19783L17.8863 7.21208L17.8701 7.22786L13.9435 11.0414L13.7544 11.2251L13.7991 11.4849L14.7248 16.8612C14.7294 16.9066 14.7314 16.9523 14.7305 16.998L14.7303 17.0099L14.7306 17.0219C14.7308 17.027 14.7306 17.0322 14.7302 17.0372C14.6902 17.0279 14.6515 17.0121 14.6156 16.9898L14.6003 16.9803L14.5843 16.972L9.73202 14.4301L9.49994 14.3085L9.26789 14.4301L4.41303 16.9746L4.39994 16.9815L4.38728 16.9891C4.34604 17.014 4.30158 17.0313 4.25572 17.041C4.25527 17.0361 4.25509 17.0311 4.25518 17.026C4.25718 16.9762 4.26223 16.9266 4.27031 16.8774C4.2704 16.8769 4.27048 16.8764 4.27056 16.8759L5.20085 11.4877L5.24581 11.2273L5.05597 11.0435L1.11782 7.22998L1.10951 7.22192L1.10082 7.21426C1.06466 7.18235 1.0359 7.14147 1.01737 7.09501C1.01871 7.09372 1.02008 7.09252 1.02146 7.09139C1.03355 7.08163 1.04675 7.07839 1.05847 7.07953L1.11879 7.08539L1.17876 7.07668L6.60833 6.28767L6.86775 6.24998L6.9843 6.01517L9.41687 1.11415L9.43609 1.07541L9.44839 1.03394C9.45604 1.00813 9.47055 0.986985 9.48826 0.972247C9.49189 0.96923 9.49562 0.966499 9.49943 0.96405C9.50322 0.966491 9.50692 0.969209 9.51052 0.97221C9.52819 0.986952 9.54267 1.00808 9.5503 1.03385L9.56263 1.07547L9.58194 1.11434L12.0158 6.01273L12.1324 6.24738L12.3917 6.28505L17.8225 7.07405ZM9.45471 0.931922L9.16845 0.5879L9.45471 0.931922Z" stroke="#FFB700"></path><g id="Subtract"><mask id="path-2-inside-1_347_203" fill="white"><path fill-rule="evenodd" clip-rule="evenodd" d="M9.5 0.440125C9.37852 0.45127 9.26307 0.499286 9.16845 0.578013C9.07384 0.656739 9.00438 0.762584 8.969 0.881966L6.53643 5.78298L1.10686 6.57199C0.963403 6.55804 0.820221 6.60126 0.707162 6.69264C0.594103 6.78402 0.519892 6.91651 0.5 7.06248C0.524156 7.26306 0.620397 7.44727 0.77 7.57928L4.70814 11.3928L3.77729 16.7843C3.76547 16.8556 3.75817 16.9277 3.75543 17C3.75141 17.1369 3.79163 17.2714 3.86986 17.3826C3.90988 17.4355 3.96203 17.4774 4.02169 17.5047C4.08135 17.532 4.14666 17.5438 4.21186 17.5391C4.36461 17.5321 4.51336 17.4869 4.64514 17.4076L9.5 14.8631V0.440125ZM14.6721 17.5253C14.7096 17.5315 14.7475 17.5352 14.7856 17.5365C14.8248 17.5388 14.864 17.535 14.9018 17.5253H14.6721Z"></path></mask><path fill-rule="evenodd" clip-rule="evenodd" d="M9.5 0.440125C9.37852 0.45127 9.26307 0.499286 9.16845 0.578013C9.07384 0.656739 9.00438 0.762584 8.969 0.881966L6.53643 5.78298L1.10686 6.57199C0.963403 6.55804 0.820221 6.60126 0.707162 6.69264C0.594103 6.78402 0.519892 6.91651 0.5 7.06248C0.524156 7.26306 0.620397 7.44727 0.77 7.57928L4.70814 11.3928L3.77729 16.7843C3.76547 16.8556 3.75817 16.9277 3.75543 17C3.75141 17.1369 3.79163 17.2714 3.86986 17.3826C3.90988 17.4355 3.96203 17.4774 4.02169 17.5047C4.08135 17.532 4.14666 17.5438 4.21186 17.5391C4.36461 17.5321 4.51336 17.4869 4.64514 17.4076L9.5 14.8631V0.440125ZM14.6721 17.5253C14.7096 17.5315 14.7475 17.5352 14.7856 17.5365C14.8248 17.5388 14.864 17.535 14.9018 17.5253H14.6721Z" fill="#FFB700"></path><path d="M9.5 0.440125H10.5V-0.655821L9.40864 -0.555693L9.5 0.440125ZM9.16845 0.578013L8.52883 -0.190679L8.52883 -0.190676L9.16845 0.578013ZM8.969 0.881966L9.86473 1.32655L9.90319 1.24908L9.92777 1.16615L8.969 0.881966ZM6.53643 5.78298L6.68023 6.77259L7.19907 6.69719L7.43216 6.22757L6.53643 5.78298ZM1.10686 6.57199L1.01009 7.56729L1.13072 7.57902L1.25066 7.56159L1.10686 6.57199ZM0.707162 6.69264L0.0785587 5.91492L0.0785587 5.91492L0.707162 6.69264ZM0.5 7.06248L-0.490842 6.92746L-0.508172 7.05463L-0.492826 7.18205L0.5 7.06248ZM0.77 7.57928L1.46565 6.8609L1.44901 6.84479L1.43165 6.82947L0.77 7.57928ZM4.70814 11.3928L5.69356 11.5629L5.78349 11.0421L5.40379 10.6744L4.70814 11.3928ZM3.77729 16.7843L2.79184 16.6142L2.79073 16.6209L3.77729 16.7843ZM3.75543 17L2.75611 16.9621L2.75586 16.9707L3.75543 17ZM3.86986 17.3826L3.0519 17.9579L3.06206 17.9724L3.07271 17.9864L3.86986 17.3826ZM4.02169 17.5047L3.6056 18.414L3.60562 18.414L4.02169 17.5047ZM4.21186 17.5391L4.16589 16.5402L4.15291 16.5408L4.13995 16.5417L4.21186 17.5391ZM4.64514 17.4076L4.18092 16.5219L4.15474 16.5356L4.12942 16.5509L4.64514 17.4076ZM9.5 14.8631L9.96422 15.7488L10.5 15.468V14.8631H9.5ZM14.6721 17.5253V16.5253L14.5091 18.5119L14.6721 17.5253ZM14.7856 17.5365L14.8448 16.5382L14.8318 16.5375L14.8187 16.537L14.7856 17.5365ZM14.9018 17.5253L15.1505 18.4939L14.9018 16.5253V17.5253ZM9.40864 -0.555693C9.08371 -0.525883 8.77752 -0.397605 8.52883 -0.190679L9.80807 1.3467C9.74861 1.39618 9.67333 1.42842 9.59136 1.43594L9.40864 -0.555693ZM8.52883 -0.190676C8.28042 0.0160232 8.10108 0.291258 8.01023 0.597783L9.92777 1.16615C9.90769 1.23391 9.86726 1.29746 9.80808 1.3467L8.52883 -0.190676ZM8.07327 0.437377L5.64069 5.3384L7.43216 6.22757L9.86473 1.32655L8.07327 0.437377ZM6.39262 4.79338L0.963052 5.58238L1.25066 7.56159L6.68023 6.77259L6.39262 4.79338ZM1.20362 5.57668C0.796701 5.53712 0.393568 5.66031 0.0785587 5.91492L1.33577 7.47037C1.24687 7.54222 1.13011 7.57896 1.01009 7.56729L1.20362 5.57668ZM0.0785587 5.91492C-0.23569 6.16891 -0.437046 6.53269 -0.490842 6.92746L1.49084 7.19751C1.47683 7.30034 1.4239 7.39914 1.33577 7.47037L0.0785587 5.91492ZM-0.492826 7.18205C-0.439739 7.62285 -0.227754 8.03251 0.10835 8.32909L1.43165 6.82947C1.46855 6.86203 1.48805 6.90326 1.49283 6.94291L-0.492826 7.18205ZM0.074352 8.29766L4.01249 12.1112L5.40379 10.6744L1.46565 6.8609L0.074352 8.29766ZM3.72272 11.2227L2.79187 16.6142L4.76271 16.9544L5.69356 11.5629L3.72272 11.2227ZM2.79073 16.6209C2.77203 16.7338 2.76048 16.8477 2.75615 16.9621L4.75471 17.0378C4.75586 17.0076 4.75891 16.9775 4.76384 16.9477L2.79073 16.6209ZM2.75586 16.9707C2.74557 17.3217 2.84843 17.6686 3.0519 17.9579L4.68781 16.8073C4.73483 16.8742 4.75726 16.9521 4.755 17.0293L2.75586 16.9707ZM3.07271 17.9864C3.21146 18.1696 3.394 18.3172 3.6056 18.414L4.43778 16.5954C4.53007 16.6376 4.6083 16.7013 4.667 16.7788L3.07271 17.9864ZM3.60562 18.414C3.81737 18.5109 4.05045 18.5533 4.28376 18.5365L4.13995 16.5417C4.24288 16.5343 4.34532 16.5531 4.43776 16.5954L3.60562 18.414ZM4.25782 18.5381C4.57757 18.5233 4.88763 18.4289 5.16087 18.2644L4.12942 16.5509C4.1391 16.545 4.15166 16.5408 4.16589 16.5402L4.25782 18.5381ZM5.10937 18.2933L9.96422 15.7488L9.03578 13.9774L4.18092 16.5219L5.10937 18.2933ZM10.5 14.8631V0.440125H8.5V14.8631H10.5ZM14.5091 18.5119C14.5893 18.5252 14.6706 18.5332 14.7524 18.5359L14.8187 16.537C14.8243 16.5372 14.8298 16.5378 14.8352 16.5387L14.5091 18.5119ZM14.7263 18.5347C14.8696 18.5432 15.0127 18.5292 15.1505 18.4939L14.6531 16.5567C14.7153 16.5407 14.78 16.5344 14.8448 16.5382L14.7263 18.5347ZM14.9018 16.5253H14.6721V18.5253H14.9018V16.5253Z" fill="#FFB700" mask="url(#path-2-inside-1_347_203)"></path></g></g></svg>
